#!OML:ASF F:\VICON\USERDATA\INSTALL\rory3\rory3.ASF
:FULLY-SPECIFIED
:DEGREES
2273
root 2.67058 16.8633 -4.70189 -7.30523 -65.7922 14.3495
lowerback 13.2847 -0.0215497 -2.9044
upperback 1.84455 -0.285973 4.06589
thorax -5.47234 -0.079152 6.02299
lowerneck -22.1105 5.57971 -5.79628
upperneck 23.0239 9.73823 0.0609377
head 10.8 3.87283 2.44945
rclavicle 2.5842e-014 -3.18055e-015
rhumerus -20.1701 -10.8294 -65.0907
rradius 138.805
rwrist -25.7589
rhand -11.9732 21.8133
rfingers 7.12502
rthumb 14.0828 -7.68948
lclavicle 2.5842e-014 -3.18055e-015
lhumerus 0.476125 7.36247 83.4292
lradius 128.13
lwrist -2.77038
lhand -8.18272 8.61264
lfingers 7.12502
lthumb 17.733 37.8241
rfemur -15.3582 8.28592 3.90057
rtibia 49.2845
rfoot -26.5572 9.94702
rtoes -16.0406
lfemur -30.7418 8.60375 -12.4174
ltibia 57.8208
lfoot -13.5303 -4.73286
ltoes -23.2458
2274
root 2.67596 16.8653 -4.67881 -6.71686 -64.9956 13.8292
lowerback 13.5549 -0.140091 -3.2549
upperback 1.75009 -0.487285 4.1948
thorax -5.69295 -0.160654 6.41157
lowerneck -21.976 5.73166 -5.80265
upperneck 22.6816 10.0338 -0.342994
head 10.6662 3.97243 2.33393
rclavicle -2.78299e-014 -1.59028e-015
rhumerus -22.4846 -12.5508 -63.9732
rradius 137.962
rwrist -27.8762
rhand -11.8058 21.9049
rfingers 7.12502
rthumb 14.2442 -7.58666
lclavicle -2.78299e-014 -1.59028e-015
lhumerus -0.382625 8.68604 82.8133
lradius 128.327
lwrist -2.67162
lhand -8.08668 8.04491
lfingers 7.12502
lthumb 17.8254 37.2479
rfemur -15.3922 8.17877 3.9547
rtibia 49.7625
rfoot -26.2345 9.64308
rtoes -16.6512
lfemur -30.9546 8.50039 -12.0725
ltibia 56.9297
lfoot -13.431 -4.07567
ltoes -22.1531
2275
root 2.67649 16.8599 -4.65774 -6.1507 -64.1968 13.4209
lowerback 13.4422 -0.267776 -3.62661
upperback 1.83887 -0.70622 4.29076
thorax -5.5006 -0.26814 6.76504
lowerneck -22.1393 5.84171 -6.02371
upperneck 22.383 10.3181 -0.557685
head 10.5817 4.06826 2.32988
rclavicle 4.05521e-014 -3.18055e-015
rhumerus -24.7564 -14.6745 -63.2413
rradius 136.884
rwrist -30.3378
rhand -10.8381 22.0906
rfingers 7.12502
rthumb 15.1764 -7.33281
lclavicle 4.05521e-014 -3.18055e-015
lhumerus -0.80756 10.3401 82.24
lradius 128.62
lwrist -1.46322
lhand -6.91852 7.20468
lfingers 7.12502
lthumb 18.9492 36.3017
rfemur -15.5294 8.05159 3.95765
rtibia 50.2715
rfoot -25.9803 9.46566
rtoes -16.9298
lfemur -31.2465 8.39224 -11.7565
ltibia 55.962
lfoot -13.3075 -3.44352
ltoes -20.2326
2276
root 2.66909 16.8508 -4.63427 -5.61878 -63.3265 13.1161
lowerback 13.2714 -0.479169 -3.79948
upperback 1.83058 -1.01005 4.20264
thorax -5.36964 -0.417908 6.81657
lowerneck -22.2733 6.02047 -6.28097
upperneck 22.2835 10.6287 -0.435923
head 10.5368 4.20884 2.45744
rclavicle -5.24792e-014 -2.22639e-014
rhumerus -27.5475 -16.9353 -62.6724
rradius 135.578
rwrist -33.0167
rhand -9.17305 21.9956
rfingers 7.12502
rthumb 16.7798 -7.29935
lclavicle -5.24792e-014 -2.22639e-014
lhumerus -1.45144 11.8694 81.3089
lradius 129.027
lwrist -0.345123
lhand -6.07178 7.24196
lfingers 7.12502
lthumb 19.7633 36.2572
rfemur -15.6582 7.81468 3.93378
rtibia 50.7366
rfoot -25.8052 9.05336
rtoes -18.1795
lfemur -31.596 8.31964 -11.5523
ltibia 54.941
lfoot -13.1496 -2.54054
ltoes -20.1952
2277
root 2.65947 16.8405 -4.60406 -5.35922 -62.2255 12.9218
lowerback 13.2805 -0.660632 -4.0852
upperback 1.82519 -1.29211 4.15821
thorax -5.33373 -0.551761 6.98296
lowerneck -22.2209 6.12839 -6.5014
upperneck 22.041 10.8496 -0.492766
head 10.4231 4.29877 2.4912
rclavicle -3.97569e-015 -3.18055e-014
rhumerus -30.7359 -19.4241 -61.4548
rradius 133.817
rwrist -35.8988
rhand -7.20528 21.6997
rfingers 7.12502
rthumb 18.6734 -7.42402
lclavicle -3.97569e-015 -3.18055e-014
lhumerus -2.10054 13.1347 80.6379
lradius 129.31
lwrist -0.0270012
lhand -5.83077 7.56575
lfingers 7.12502
lthumb 19.995 36.557
rfemur -15.4176 7.37498 3.84965
rtibia 51.1199
rfoot -25.8203 8.68189
rtoes -19.8705
lfemur -31.792 8.04496 -11.4653
ltibia 53.8824
lfoot -12.9238 -1.55203
ltoes -21.2149
2278
root 2.65028 16.8293 -4.56862 -4.83647 -61.0406 12.3803
lowerback 13.3323 -0.743034 -4.11819
upperback 1.86185 -1.41192 4.05184
thorax -5.30728 -0.612151 6.90763
lowerneck -22.1656 6.17965 -6.22737
upperneck 21.6531 10.898 -0.86142
head 10.3121 4.31831 2.31333
rclavicle -8.94531e-014 2.70347e-014
rhumerus -34.2723 -22.1868 -59.8767
rradius 131.527
rwrist -38.7599
rhand -5.83357 21.1916
rfingers 7.12502
rthumb 19.9923 -7.79992
lclavicle -8.94531e-014 2.70347e-014
lhumerus -2.4947 14.0839 79.962
lradius 129.374
lwrist 0.29097
lhand -5.40926 7.09195
lfingers 7.12502
lthumb 20.4001 36.0404
rfemur -15.0393 6.80292 3.90235
rtibia 51.4157
rfoot -25.7561 8.83187
rtoes -19.7386
lfemur -31.9952 7.66119 -11.1983
ltibia 52.8083
lfoot -12.651 -0.746394
ltoes -21.9545
2279
root 2.63872 16.8124 -4.52678 -4.32686 -59.7242 11.8421
lowerback 13.408 -0.831345 -4.07391
upperback 1.88538 -1.53309 3.84703
thorax -5.31293 -0.673395 6.68235
lowerneck -22.1716 6.28525 -5.52192
upperneck 21.3058 10.9208 -1.36639
head 10.2615 4.34013 2.02476
rclavicle 5.1684e-015 3.18055e-015
rhumerus -38.0982 -24.7369 -58.2737
rradius 128.777
rwrist -41.3887
rhand -5.33451 20.5539
rfingers 7.12502
rthumb 20.472 -8.3868
lclavicle 5.1684e-015 3.18055e-015
lhumerus -2.87344 14.7382 79.1451
lradius 129.389
lwrist 0.467771
lhand -5.34831 6.69423
lfingers 7.12502
lthumb 20.4587 35.6364
rfemur -14.563 6.01959 3.94015
rtibia 51.671
rfoot -25.6534 9.12212
rtoes -19.113
lfemur -32.2389 7.18214 -10.9544
ltibia 51.7336
lfoot -12.3425 -0.158915
ltoes -22.1568
